<svg width="18" height="18" viewBox="0 0 18 18" fill="none" xmlns="http://www.w3.org/2000/svg">
  <path d="M9 0C7.21997 0 5.47991 0.527841 3.99987 1.51677C2.51983 2.50571 1.36628 3.91131 0.685088 5.55585C0.00389956 7.20038 -0.17433 9.00998 0.172936 10.7558C0.520203 12.5016 1.37737 14.1053 2.63604 15.364C3.89471 16.6226 5.49836 17.4798 7.24419 17.8271C8.99002 18.1743 10.7996 17.9961 12.4442 17.3149C14.0887 16.6337 15.4943 15.4802 16.4832 14.0001C17.4722 12.5201 18 10.78 18 9C18 7.8181 17.7672 6.64778 17.3149 5.55585C16.8626 4.46392 16.1997 3.47177 15.364 2.63604C14.5282 1.80031 13.5361 1.13738 12.4442 0.685084C11.3522 0.232792 10.1819 0 9 0ZM9.9 16.137V15.3C9.9 15.0613 9.80518 14.8324 9.6364 14.6636C9.46762 14.4948 9.2387 14.4 9 14.4C8.76131 14.4 8.53239 14.4948 8.36361 14.6636C8.19482 14.8324 8.1 15.0613 8.1 15.3V16.137C6.51598 15.9361 5.04367 15.2144 3.91463 14.0854C2.78559 12.9563 2.06388 11.484 1.863 9.9H2.7C2.9387 9.9 3.16762 9.80518 3.3364 9.63639C3.50518 9.46761 3.6 9.23869 3.6 9C3.6 8.7613 3.50518 8.53238 3.3364 8.3636C3.16762 8.19482 2.9387 8.1 2.7 8.1H1.863C2.06388 6.51598 2.78559 5.04367 3.91463 3.91463C5.04367 2.78558 6.51598 2.06387 8.1 1.863V2.7C8.1 2.93869 8.19482 3.16761 8.36361 3.3364C8.53239 3.50518 8.76131 3.6 9 3.6C9.2387 3.6 9.46762 3.50518 9.6364 3.3364C9.80518 3.16761 9.9 2.93869 9.9 2.7V1.863C11.484 2.06387 12.9563 2.78558 14.0854 3.91463C15.2144 5.04367 15.9361 6.51598 16.137 8.1H15.3C15.0613 8.1 14.8324 8.19482 14.6636 8.3636C14.4948 8.53238 14.4 8.7613 14.4 9C14.4 9.23869 14.4948 9.46761 14.6636 9.63639C14.8324 9.80518 15.0613 9.9 15.3 9.9H16.137C15.9361 11.484 15.2144 12.9563 14.0854 14.0854C12.9563 15.2144 11.484 15.9361 9.9 16.137ZM11.826 4.995L7.326 6.903C7.11622 6.99389 6.9489 7.16122 6.858 7.371L4.95 11.871C4.87912 12.036 4.85924 12.2185 4.89292 12.3949C4.92661 12.5714 5.01231 12.7337 5.139 12.861C5.30517 13.0306 5.53161 13.1276 5.769 13.131C5.89353 13.1311 6.01652 13.1034 6.129 13.05L10.629 11.142C10.8388 11.0511 11.0061 10.8838 11.097 10.674L13.005 6.174C13.0746 6.00908 13.0934 5.82717 13.059 5.65151C13.0246 5.47586 12.9387 5.31443 12.8121 5.18787C12.6856 5.06131 12.5241 4.97536 12.3485 4.941C12.1728 4.90665 11.9909 4.92545 11.826 4.995ZM9.585 9.585L7.533 10.485L8.433 8.433L10.485 7.533L9.585 9.585Z" fill="#27AE60" />
</svg>