<svg width="22" height="18" viewBox="0 0 22 18" fill="none" xmlns="http://www.w3.org/2000/svg">
  <path d="M19.2955 1.90686C18.2198 0.828351 16.7938 0.170091 15.2752 0.0509847C13.7566 -0.0681212 12.2455 0.359781 11.0148 1.2574C9.72363 0.297038 8.11655 -0.138434 6.51717 0.0386726C4.91779 0.21578 3.44492 0.992311 2.39515 2.21189C1.34539 3.43147 0.796707 5.00351 0.859603 6.61143C0.922498 8.21936 1.5923 9.74374 2.73412 10.8776L9.03596 17.1896C9.56366 17.7089 10.2744 18 11.0148 18C11.7552 18 12.4659 17.7089 12.9936 17.1896L19.2955 10.8776C20.4803 9.68549 21.1453 8.07299 21.1453 6.39223C21.1453 4.71146 20.4803 3.09897 19.2955 1.90686ZM17.8646 9.47718L11.5628 15.779C11.4911 15.8514 11.4057 15.9089 11.3117 15.9481C11.2176 15.9874 11.1167 16.0076 11.0148 16.0076C10.9129 16.0076 10.812 15.9874 10.7179 15.9481C10.6239 15.9089 10.5385 15.8514 10.4668 15.779L4.16497 9.44674C3.36913 8.63323 2.92349 7.54043 2.92349 6.40237C2.92349 5.26432 3.36913 4.17152 4.16497 3.35801C4.97594 2.55733 6.0697 2.10837 7.20934 2.10837C8.34897 2.10837 9.44273 2.55733 10.2537 3.35801C10.348 3.45312 10.4603 3.52862 10.5839 3.58014C10.7076 3.63166 10.8402 3.65818 10.9742 3.65818C11.1082 3.65818 11.2408 3.63166 11.3645 3.58014C11.4881 3.52862 11.6004 3.45312 11.6947 3.35801C12.5057 2.55733 13.5994 2.10837 14.7391 2.10837C15.8787 2.10837 16.9725 2.55733 17.7834 3.35801C18.5902 4.16086 19.0505 5.24774 19.0657 6.38582C19.0808 7.5239 18.6497 8.62267 17.8646 9.44674V9.47718Z" fill="#27AE60" />
</svg>