<svg width="16" height="16" viewBox="0 0 16 16" fill="none" xmlns="http://www.w3.org/2000/svg">
  <path d="M3.33325 5.33333H12.6666C12.8434 5.33333 13.013 5.2631 13.138 5.13807C13.263 5.01305 13.3333 4.84348 13.3333 4.66667C13.3333 4.48986 13.263 4.32029 13.138 4.19526C13.013 4.07024 12.8434 4 12.6666 4H3.33325C3.15644 4 2.98687 4.07024 2.86185 4.19526C2.73682 4.32029 2.66659 4.48986 2.66659 4.66667C2.66659 4.84348 2.73682 5.01305 2.86185 5.13807C2.98687 5.2631 3.15644 5.33333 3.33325 5.33333ZM13.9999 7.33333H1.99992C1.82311 7.33333 1.65354 7.40357 1.52851 7.5286C1.40349 7.65362 1.33325 7.82319 1.33325 8C1.33325 8.17681 1.40349 8.34638 1.52851 8.4714C1.65354 8.59643 1.82311 8.66667 1.99992 8.66667H13.9999C14.1767 8.66667 14.3463 8.59643 14.4713 8.4714C14.5963 8.34638 14.6666 8.17681 14.6666 8C14.6666 7.82319 14.5963 7.65362 14.4713 7.5286C14.3463 7.40357 14.1767 7.33333 13.9999 7.33333ZM12.6666 10.6667H3.33325C3.15644 10.6667 2.98687 10.7369 2.86185 10.8619C2.73682 10.987 2.66659 11.1565 2.66659 11.3333C2.66659 11.5101 2.73682 11.6797 2.86185 11.8047C2.98687 11.9298 3.15644 12 3.33325 12H12.6666C12.8434 12 13.013 11.9298 13.138 11.8047C13.263 11.6797 13.3333 11.5101 13.3333 11.3333C13.3333 11.1565 13.263 10.987 13.138 10.8619C13.013 10.7369 12.8434 10.6667 12.6666 10.6667Z" fill="#BDBDBD" />
</svg>