<svg width="18" height="18" viewBox="0 0 18 18" fill="none" xmlns="http://www.w3.org/2000/svg">
  <path d="M8.99847 18C8.77147 18 8.54646 17.992 8.33046 17.975C7.85522 17.9311 7.4093 17.7259 7.06677 17.3936C6.72423 17.0612 6.5057 16.6217 6.44746 16.148L6.37646 15.657C6.34191 15.5035 6.27266 15.36 6.17403 15.2375C6.0754 15.1149 5.95 15.0166 5.80747 14.95C5.68347 14.883 5.56046 14.812 5.44246 14.738C5.26027 14.6194 5.04878 14.5536 4.83146 14.548C4.73368 14.5469 4.6366 14.5645 4.54546 14.6L4.08346 14.784C3.81926 14.8887 3.53767 14.9427 3.25346 14.943C2.92128 14.9485 2.59291 14.8716 2.29767 14.7193C2.00242 14.567 1.74949 14.3439 1.56147 14.07C1.30963 13.6998 1.08568 13.3114 0.891465 12.908C0.692123 12.4746 0.647209 11.986 0.764197 11.5235C0.881184 11.061 1.15302 10.6525 1.53447 10.366L1.92546 10.056C2.0413 9.94993 2.13122 9.81866 2.18826 9.67232C2.24531 9.52598 2.26796 9.36848 2.25446 9.212C2.25446 9.149 2.25446 9.079 2.25446 9C2.25446 8.921 2.25446 8.851 2.25446 8.788C2.26796 8.63152 2.24531 8.47402 2.18826 8.32768C2.13122 8.18134 2.0413 8.05007 1.92546 7.944L1.53447 7.634C1.15317 7.34738 0.881448 6.93889 0.764473 6.47645C0.647497 6.014 0.69231 5.52545 0.891465 5.092C1.08551 4.6885 1.30947 4.30008 1.56147 3.93C1.74949 3.6561 2.00242 3.43303 2.29767 3.2807C2.59291 3.12836 2.92128 3.05151 3.25346 3.057C3.53767 3.05734 3.81926 3.11128 4.08346 3.216L4.54546 3.4C4.6366 3.43545 4.73368 3.4531 4.83146 3.452C5.04878 3.44636 5.26027 3.38059 5.44246 3.262C5.56046 3.188 5.68347 3.116 5.80747 3.05C5.95009 2.98356 6.07556 2.88526 6.17421 2.76269C6.27286 2.64011 6.34205 2.49653 6.37646 2.343L6.44746 1.853C6.50563 1.37908 6.72408 0.939287 7.06659 0.606606C7.40909 0.273924 7.85505 0.0683519 8.33046 0.024C8.55046 0.008 8.77447 0 8.99847 0C9.22247 0 9.44746 0.008 9.66747 0.024C10.1427 0.0681685 10.5885 0.273575 10.9308 0.606104C11.2732 0.938633 11.4915 1.37827 11.5495 1.852L11.6215 2.342C11.6554 2.49558 11.7243 2.63926 11.8228 2.76188C11.9214 2.8845 12.0468 2.98275 12.1895 3.049C12.3085 3.112 12.4285 3.182 12.5555 3.261C12.7377 3.37959 12.9492 3.44536 13.1665 3.451C13.2646 3.45216 13.362 3.43451 13.4535 3.399L13.9145 3.215C14.1787 3.11035 14.4603 3.05641 14.7445 3.056C15.0766 3.0506 15.405 3.12749 15.7002 3.27982C15.9954 3.43214 16.2484 3.65517 16.4365 3.929C16.6892 4.29902 16.9138 4.68744 17.1085 5.091C17.3076 5.52445 17.3524 6.013 17.2355 6.47545C17.1185 6.93789 16.8468 7.34638 16.4655 7.633L16.0735 7.943C15.9577 8.04907 15.8679 8.18037 15.811 8.32673C15.7541 8.47309 15.7317 8.63058 15.7455 8.787C15.7455 8.857 15.7455 8.928 15.7455 8.999C15.7455 9.07 15.7455 9.141 15.7455 9.211C15.7317 9.36742 15.7541 9.52491 15.811 9.67127C15.8679 9.81763 15.9577 9.94893 16.0735 10.055L16.4655 10.365C16.8469 10.6515 17.1187 11.06 17.2357 11.5225C17.3527 11.985 17.3078 12.4736 17.1085 12.907C16.9136 13.3105 16.689 13.6989 16.4365 14.069C16.2484 14.3428 15.9954 14.5659 15.7002 14.7182C15.405 14.8705 15.0766 14.9474 14.7445 14.942C14.4603 14.9416 14.1787 14.8876 13.9145 14.783L13.4535 14.599C13.362 14.5635 13.2646 14.5458 13.1665 14.547C12.9492 14.5526 12.7377 14.6184 12.5555 14.737C12.4275 14.817 12.3085 14.886 12.1895 14.949C12.0469 15.0154 11.9216 15.1137 11.8231 15.2363C11.7246 15.3589 11.6556 15.5025 11.6215 15.656L11.5495 16.147C11.4916 16.6207 11.2733 17.0603 10.9309 17.3927C10.5885 17.7251 10.1427 17.9302 9.66747 17.974C9.45147 17.992 9.22647 18 8.99847 18ZM4.82546 13.046C5.32426 13.0535 5.81138 13.1981 6.23346 13.464C6.34646 13.533 6.43347 13.584 6.51747 13.628C6.86827 13.8034 7.17274 14.059 7.40611 14.3742C7.63947 14.6894 7.79515 15.0553 7.86047 15.442L7.93146 15.932C7.94168 16.0673 7.99748 16.1952 8.08974 16.2947C8.18201 16.3943 8.30529 16.4596 8.43947 16.48C8.61946 16.493 8.80747 16.5 8.99847 16.5C9.18947 16.5 9.37747 16.493 9.55747 16.48C9.69164 16.4596 9.81492 16.3943 9.90719 16.2947C9.99945 16.1952 10.0552 16.0673 10.0655 15.932L10.1365 15.442C10.202 15.0552 10.3578 14.6893 10.5914 14.3741C10.8249 14.0589 11.1295 13.8033 11.4805 13.628C11.5715 13.579 11.6605 13.528 11.7655 13.464C12.1872 13.198 12.674 13.0534 13.1725 13.046C13.4587 13.0452 13.7425 13.0991 14.0085 13.205L14.4695 13.389C14.5565 13.4246 14.6495 13.4433 14.7435 13.444C14.8314 13.4469 14.9188 13.4284 14.9981 13.39C15.0773 13.3517 15.1461 13.2947 15.1985 13.224C15.4086 12.9157 15.5955 12.5921 15.7575 12.256C15.808 12.1302 15.8138 11.9909 15.7737 11.8614C15.7337 11.732 15.6502 11.6202 15.5375 11.545L15.1455 11.234C14.8429 10.9848 14.6035 10.6675 14.4471 10.3081C14.2907 9.94864 14.2216 9.55727 14.2455 9.166V9V8.834C14.2217 8.44259 14.2908 8.0511 14.4472 7.69152C14.6036 7.33193 14.8429 7.01445 15.1455 6.765L15.5375 6.455C15.6503 6.37962 15.7338 6.2677 15.7738 6.13804C15.8139 6.00839 15.8081 5.8689 15.7575 5.743C15.5955 5.40686 15.4087 5.08329 15.1985 4.775C15.146 4.70399 15.0771 4.64678 14.9977 4.60828C14.9183 4.56978 14.8307 4.55116 14.7425 4.554C14.6488 4.55479 14.5561 4.57346 14.4695 4.609L14.0085 4.794C13.7421 4.8998 13.458 4.95376 13.1715 4.953C12.6733 4.94577 12.1867 4.80112 11.7655 4.535C11.6755 4.481 11.5785 4.424 11.4805 4.37C11.1296 4.19516 10.8249 3.9399 10.5914 3.62502C10.3578 3.31014 10.202 2.94454 10.1365 2.558L10.0655 2.068C10.0563 1.93242 10.0008 1.80411 9.90834 1.70453C9.81587 1.60496 9.692 1.54017 9.55747 1.521C9.37747 1.508 9.18947 1.501 8.99847 1.501C8.80747 1.501 8.61946 1.508 8.43947 1.521C8.30493 1.54017 8.18107 1.60496 8.08859 1.70453C7.99612 1.80411 7.94065 1.93242 7.93146 2.068L7.86047 2.558C7.79541 2.94455 7.63994 3.31026 7.40673 3.62532C7.17351 3.94038 6.86916 4.19588 6.51847 4.371C6.43347 4.416 6.34347 4.471 6.23447 4.536C5.81282 4.80206 5.32598 4.94669 4.82747 4.954C4.54117 4.95422 4.25745 4.89992 3.99146 4.794L3.53146 4.609C3.44477 4.57353 3.35213 4.55487 3.25846 4.554C3.17023 4.55107 3.08261 4.56966 3.00316 4.60816C2.92372 4.64667 2.85484 4.70393 2.80246 4.775C2.59197 5.08328 2.40478 5.40685 2.24247 5.743C2.19239 5.86897 2.1869 6.00828 2.22692 6.13779C2.26694 6.26731 2.35006 6.37924 2.46247 6.455L2.85447 6.765C3.15715 7.01434 3.3965 7.33181 3.55293 7.69142C3.70936 8.05103 3.77842 8.44257 3.75446 8.834V9V9.166C3.7785 9.55729 3.70947 9.94871 3.55303 10.3082C3.39659 10.6676 3.1572 10.9849 2.85447 11.234L2.46247 11.545C2.34999 11.6205 2.2668 11.7322 2.22676 11.8616C2.18673 11.991 2.19227 12.1302 2.24247 12.256C2.40462 12.5922 2.59181 12.9158 2.80246 13.224C2.85479 13.2948 2.92354 13.3518 3.00281 13.3902C3.08207 13.4285 3.16947 13.447 3.25746 13.444C3.35146 13.4432 3.44445 13.4245 3.53146 13.389L3.99146 13.205C4.25683 13.0995 4.53989 13.0455 4.82546 13.046ZM8.99847 12.746C8.25662 12.746 7.53143 12.526 6.91466 12.1137C6.29789 11.7015 5.81725 11.1156 5.53354 10.4301C5.24983 9.74468 5.1758 8.99048 5.32082 8.26294C5.46583 7.5354 5.82338 6.86722 6.34823 6.34294C6.87308 5.81865 7.54164 5.46181 8.26933 5.31757C8.99702 5.17333 9.75115 5.24816 10.4363 5.5326C11.1215 5.81704 11.7068 6.29831 12.1184 6.91552C12.53 7.53273 12.7493 8.25815 12.7485 9C12.7474 9.99424 12.352 10.9474 11.6489 11.6505C10.9459 12.3535 9.9927 12.7489 8.99847 12.75V12.746ZM8.99847 6.746C8.55363 6.746 8.11877 6.87786 7.74885 7.12492C7.37892 7.37197 7.09054 7.72314 6.92012 8.13404C6.74971 8.54494 6.70492 8.99714 6.79141 9.43348C6.8779 9.86983 7.0918 10.2708 7.40607 10.5856C7.72033 10.9004 8.12087 11.115 8.55707 11.2023C8.99326 11.2895 9.44553 11.2456 9.85674 11.0759C10.2679 10.9062 10.6196 10.6184 10.8673 10.2489C11.115 9.87946 11.2477 9.44484 11.2485 9C11.2477 8.40351 11.0104 7.83167 10.5886 7.40989C10.1668 6.9881 9.59496 6.75079 8.99847 6.75V6.746Z" fill="black" fill-opacity="0.45" />
</svg>